<svg xmlns="http://www.w3.org/2000/svg" xmlns:xlink="http://www.w3.org/1999/xlink" width="50" zoomAndPan="magnify" viewBox="0 0 37.5 37.499999" height="50" preserveAspectRatio="xMidYMid meet" version="1.0"><defs><clipPath id="87bf0e988c"><path d="M 5.59375 1.355469 L 31.84375 1.355469 L 31.84375 35.855469 L 5.59375 35.855469 Z M 5.59375 1.355469 " clip-rule="nonzero"/></clipPath><clipPath id="d82125d8e0"><path d="M 5.59375 1.355469 L 31.84375 1.355469 L 31.84375 18 L 5.59375 18 Z M 5.59375 1.355469 " clip-rule="nonzero"/></clipPath></defs><g clip-path="url(#87bf0e988c)"><path fill="#8b8df2" d="M 31.828125 13.449219 C 31.828125 20.105469 25.992188 25.691406 18.714844 25.691406 L 14.820312 25.691406 L 14.820312 35.855469 L 5.605469 35.855469 L 5.605469 1.355469 C 6.542969 16.957031 14.820312 17.238281 14.820312 17.238281 L 18.714844 17.257812 C 18.769531 17.257812 18.820312 17.257812 18.871094 17.257812 L 18.878906 17.257812 C 19.953125 17.238281 26.167969 16.984375 31.828125 13.449219 Z M 31.828125 13.449219 " fill-opacity="1" fill-rule="nonzero"/></g><g clip-path="url(#d82125d8e0)"><path fill="#6365f1" d="M 22.9375 13.488281 C 22.9375 11.394531 21.171875 9.808594 18.714844 9.808594 L 14.820312 9.808594 L 14.820312 17.238281 C 14.820312 17.238281 6.542969 16.957031 5.605469 1.355469 L 18.714844 1.355469 C 25.863281 1.355469 31.828125 6.703125 31.828125 13.449219 C 26.167969 16.984375 19.953125 17.238281 18.878906 17.257812 C 21.269531 17.207031 22.9375 15.5625 22.9375 13.488281 Z M 22.9375 13.488281 " fill-opacity="1" fill-rule="nonzero"/></g></svg>