<svg xmlns="http://www.w3.org/2000/svg" xmlns:xlink="http://www.w3.org/1999/xlink" width="200" zoomAndPan="magnify" viewBox="0 0 150 149.999998" height="200" preserveAspectRatio="xMidYMid meet" version="1.0"><defs><clipPath id="2d26024363"><path d="M 24.015625 2.691406 L 133.515625 2.691406 L 133.515625 147.441406 L 24.015625 147.441406 Z M 24.015625 2.691406 " clip-rule="nonzero"/></clipPath><clipPath id="762397ed26"><path d="M 24.015625 2.691406 L 133.515625 2.691406 L 133.515625 70 L 24.015625 70 Z M 24.015625 2.691406 " clip-rule="nonzero"/></clipPath></defs><g clip-path="url(#2d26024363)"><path fill="#8b8df2" d="M 133.453125 53.429688 C 133.453125 81.355469 109.117188 104.796875 78.761719 104.796875 L 62.503906 104.796875 L 62.503906 147.449219 L 24.066406 147.449219 L 24.066406 2.691406 C 27.980469 68.152344 62.503906 69.324219 62.503906 69.324219 L 78.761719 69.414062 C 78.980469 69.414062 79.191406 69.414062 79.40625 69.410156 L 79.4375 69.410156 C 83.914062 69.339844 109.847656 68.265625 133.453125 53.429688 Z M 133.453125 53.429688 " fill-opacity="1" fill-rule="nonzero"/></g><g clip-path="url(#762397ed26)"><path fill="#6365f1" d="M 96.363281 53.609375 C 96.363281 44.808594 89 38.160156 78.761719 38.160156 L 62.503906 38.160156 L 62.503906 69.324219 C 62.503906 69.324219 27.980469 68.152344 24.066406 2.691406 L 78.761719 2.691406 C 108.578125 2.691406 133.453125 25.136719 133.453125 53.429688 C 109.847656 68.265625 83.914062 69.339844 79.4375 69.410156 C 89.402344 69.195312 96.363281 62.304688 96.363281 53.609375 Z M 96.363281 53.609375 " fill-opacity="1" fill-rule="nonzero"/></g></svg>